name new_emg_signals
nRows=76
nColumns=7
 
endheader
time	LGLTMED	LRF	LADDLONG	LBF	LTA	LGM
1.129999999999976	0.8767781030489853	0.7157940949685491	0.9853719015835972	0.992326180255506	0.8039954993933238	0.8165164749277504
1.1399999999999757	0.872951801130605	0.7144805840221907	0.9866395417682944	0.9912829576618916	0.8032468755700746	0.8138971523770945
1.1499999999999755	0.8691351954915073	0.7131470975944462	0.9878310283553484	0.9901809424286464	0.8025772706822151	0.8113825450076867
1.159999999999977	0.8653287881432739	0.7117987896043085	0.9889496156194963	0.9890210972211838	0.801993506959803	0.8089726898319615
1.1699999999999768	0.8615328935336648	0.7104407212361546	0.9899984496488584	0.9878043249000444	0.8015021122871934	0.8066673998570406
1.1799999999999766	0.8577476510537473	0.7090778507158487	0.9909805603382013	0.986531477333828	0.8011093068296359	0.8044662747879754
1.1899999999999746	0.8539730377249801	0.7077150233697772	0.9918988537993844	0.9852033640874206	0.8008209902976741	0.8023687119759606
1.1999999999999744	0.8502088810033411	0.7063569619839918	0.9927561052	0.9838207609570108	0.8006427298763817	0.8003739175681968
1.2099999999999742	0.8464548716366525	0.705008257479145	0.99355495203921	0.982384418324138	0.8005797488443352	0.7984809178153971
1.219999999999974	0.8427105765109991	0.7036733599155082	0.994297887868448	0.9808950693018648	0.8006369159054417	0.7966885704929902
1.2299999999999738	0.8389754514237099	0.7023565698413139	0.9949872564639848	0.9793534376467802	0.8008187352546177	0.7949955763928777
1.2399999999999718	0.8352488537240673	0.7010620299976243	0.9956252464588572	0.9777602454105272	0.8011293373960621	0.7934004908441473
1.2499999999999716	0.8315300547687607	0.6997937173945356	0.9962138864435026	0.97611622030389	0.8015724707306129	0.7919017352236563
1.2599999999999714	0.8278182521449192	0.698555435776827	0.996755040547646	0.9744221027449488	0.8021514939266916	0.7904976084192198
1.269999999999973	0.8241125816180487	0.6973508085006956	0.9972504045181564	0.9726786525608858	0.8028693690879755	0.7891862982093436
1.2799999999999727	0.8204121287646391	0.6961832718451848	0.997701502308624	0.9708866553111414	0.8037286557303608	0.787965892523183
1.2899999999999725	0.816715940250584	0.6950560687820907	0.998109683195198	0.969046928198458	0.804731505580452	0.7868343905433399
1.2999999999999723	0.8130230347179568	0.6939722432273125	0.99847611943173	0.9671603255338812	0.8058796582075245	0.785789713613051
1.309999999999972	0.8093324132462153	0.6929346347949289	0.998801804456084	0.9652277437229754	0.8071744375004578	0.7848297159085542
1.3199999999999719	0.8056430693604834	0.6919458740735177	0.9990875516581668	0.9632501257444144	0.8086167490001188	0.783952194836989
1.3299999999999716	0.8019539985678386	0.6910083784421213	0.999333993718718	0.9612284650987614	0.8102070780965406	0.7831549011201987
1.3399999999999714	0.7982642074096834	0.6901243484411086	0.9995415825253734	0.959163809213558	0.8119454890986166	0.7824355485256722
1.349999999999973	0.7945727220218808	0.6892957647112657	0.9997105896702072	0.9570572622980736	0.8138316251822483	0.7817918232072406
1.359999999999971	0.790878596194948	0.6885243855126649	0.9998411075307116	0.9549099876472456	0.8158647092212274	0.7812213926198682
1.3699999999999708	0.7871809189253061	0.6878117448333911	0.9999330509346172	0.9527232093995788	0.8180435455039666	0.7807219139746812
1.3799999999999706	0.7834788214474492	0.6871591510964477	0.999986159407448	0.95049821375894	0.8203665223382108	0.7802910422028214
1.3899999999999704	0.779771483736523	0.6865676864714013	1.0	0.948236349695102	0.8228316155452322	0.7799264374006347
1.3999999999999702	0.7760581404719723	0.6860382067951761	0.999973970691103	0.945939029141386	0.8254363928443906	0.7796257717340745
1.40999999999997	0.772338086454786	0.685571342104628	0.999907304358962	0.943607726708932	0.8281780191282048	0.7793867357861758
1.4199999999999697	0.7686106814734492	0.685167497781639	0.9997990733127502	0.941243978936794	0.8310532626271433	0.7792070443367084
1.4299999999999695	0.7648753546153174	0.684826856309681	0.9996481943751794	0.9388493830961192	0.8340585019615032	0.7790844415668965
1.4399999999999675	0.7611316080219888	0.6845493796392333	0.9994534345060267	0.9364255955661864	0.8371897340756485	0.7790167056848913
1.449999999999969	0.7573790200895775	0.6843348121576416	0.999213416955632	0.9339743297999712	0.8404425830472888	0.7790016529696324
1.4599999999999689	0.753617248119616	0.6841826842577348	0.9989266279357818	0.9314973538967914	0.8438123097622496	0.7790371412324897
1.4699999999999687	0.7498460304328499	0.6840923164978855	0.9985914237929602	0.9289964877990372	0.8472938224431228	0.7791210726977861
1.4799999999999685	0.7460651879646312	0.6840628243447935	0.9982060386668844	0.9264736001299576	0.8508816880184004	0.779251396305606
1.4899999999999682	0.7422746253643373	0.6840931234884755	0.9977685926149158	0.923930604689944	0.8545701443169669	0.7794261094434166
1.499999999999968	0.7384743316226707	0.6841819357172365	0.9972771001815396	0.9213694566311618	0.858353113070725	0.7796432591183915
1.5099999999999678	0.7346643802507162	0.6843277953389217	0.9967294793903771	0.9187921483332092	0.8622242137057466	0.7799009425889402
1.5199999999999676	0.7308449290346085	0.6845290561331685	0.9961235611351954	0.916200705005486	0.8661767778995734	0.7801973074803428
1.5299999999999674	0.7270162193891215	0.6847838988178472	0.9954570989437334	0.9135971800438528	0.8702038648793672	0.7805305514130394
1.539999999999969	0.7231785753339969	0.6850903390110966	0.994727779086004	0.910983650170352	0.8742982774327303	0.7808989211734433
1.5499999999999687	0.7193324021174703	0.6854462356682681	0.9939332309957484	0.9083622103860234	0.8784525785999129	0.7813007114570667
1.5599999999999685	0.7154781845126746	0.6858492999710077	0.9930710379713688	0.9057349687694392	0.8826591090131963	0.781734263213409
1.5699999999999665	0.711616484812738	0.6862971046434145	0.9921387481203248	0.9031040411559156	0.8869100048459433	0.7821979616219112
1.5799999999999663	0.7077479405495037	0.6867870936678597	0.99113388550978	0.9004715457340766	0.8911972163309722	0.7826902337282727
1.589999999999966	0.7038732619594302	0.6873165923705893	0.9900539614851972	0.8978395975959775	0.8955125268048995	0.7832095457703199
1.599999999999966	0.6999932292184861	0.6878828178450787	0.9888964861186916	0.8952103032758016	0.899847572232817	0.7837544002221198
1.609999999999964	0.6961086894661006	0.6884828896789191	0.9876589797486272	0.8925857553098924	0.9041938611652331	0.7843233325844007
1.6199999999999637	0.6922205536364984	0.6891138409482519	0.9863389845723434	0.889968026848623	0.9085427950773136	0.7849149079486144
1.6299999999999635	0.6883297931140103	0.6897726294416248	0.984934076252979	0.8873591663476921	0.912885689038524	0.7855277173613923
1.639999999999965	0.6844374362277107	0.6904561490733766	0.983441875500921	0.8847611923636549	0.9172137926590744	0.7861603740158716
1.6499999999999648	0.680544564600162	0.6911612414444528	0.9818600595892576	0.8821760884752808	0.921518311258516	0.7868115092958554
1.6599999999999646	0.6766523093649858	0.6918847075066507	0.980186373761168	0.8796057983494382	0.9257904272009928	0.7874797686979258
1.6699999999999644	0.6727618472681289	0.6926233192841137	0.978418642485757	0.8770522209672162	0.930021321341463	0.7881638076558549
1.6799999999999642	0.6688743966677001	0.6933738316039942	0.9765547805172722	0.8745172060236142	0.934202194526494	0.7888622872905107
1.689999999999964	0.6649912134475512	0.6941329937863175	0.9745928037109248	0.8720025495125616	0.938324289091768	0.7895738701083184
1.6999999999999638	0.6611135868608573	0.6948975612420984	0.9725308395481872	0.8695099895084335	0.9423789102957296	0.790297215671123
1.7099999999999635	0.6572428353209582	0.6956643069289586	0.970367137323669	0.8670412021560998	0.9463574476260684	0.7910309762606044
1.7199999999999633	0.6533803021573049	0.6964300326157321	0.9681000779463648	0.8645977978827215	0.9502513959127898	0.7917737925603601
1.729999999999965	0.6495273513539617	0.6971915799117326	0.9657281833084662	0.8621813178459522	0.9540523761792647	0.7925242893787277
1.7399999999999647	0.6456853632876106	0.6979458410219919	0.9632501251752218	0.8597932306335723	0.957752156160503	0.7932810714356777
1.7499999999999627	0.6418557304809934	0.6986897691960686	0.9606647335495188	0.8574349292298539	0.9613426704161206	0.7940427192383761
1.7599999999999625	0.6380398533871356	0.6994203888436868	0.9579710044652888	0.8551077282632816	0.964816039964183	0.794807785071512
1.7699999999999623	0.6342391362190934	0.7001348052943348	0.9551681071659543	0.8528128615492734	0.9681645913615724	0.795574789130126
1.779999999999962	0.6304549828401819	0.7008302141798143	0.9522553906276476	0.8505514799404128	0.9713808751565668	0.7963422158238505
1.7899999999999618	0.6266887927297677	0.7015039104190813	0.949232389391492	0.8483246494951615	0.9744576836401844	0.7971085102820117
1.7999999999999599	0.6229419570398802	0.7021532967839291	0.9460988286741994	0.8461333499748063	0.977388067824534	0.7978720750885308
1.8099999999999596	0.6192158547574069	0.7027758920227761	0.9428546287314834	0.8439784736763359	0.9801653535798728	0.7986312672741406
1.8199999999999594	0.6155118489857775	0.7033693385185634	0.9394999084568446	0.841860824607034	0.9827831568664668	0.7993843955915051
1.829999999999961	0.611831283358873	0.7039314094558897	0.9360349882076604	0.8397811180043532	0.9852353980031328	0.8001297180964853
1.8399999999999608	0.6081754785986998	0.7044600154728737	0.9324603918611846	0.8377399802030011	0.9875163149215672	0.8008654400568617
1.8499999999999606	0.6045457292267152	0.7049532107751478	0.9287768481113232	0.8357379488497083	0.9896204753637756	0.8015897122077904
1.8599999999999604	0.600943300437434	0.705409198692125	0.9249852910228984	0.8337754734655949	0.9915427879876008	0.8023006293718259
1.8699999999999601	0.5973694251414507	0.7058263366586672	0.9210868598628852	0.8318529163556106	0.9932785123512636	0.8029962294599318
1.87999999999996	0.5938253011844746	0.7062031406076696	0.917082898230086	0.8299705538646202	0.9948232677535148	0.8036744928686232
